<svg width="48" height="48" viewBox="0 0 48 48" fill="none" xmlns="http://www.w3.org/2000/svg">
<g clip-path="url(#clip0_1_427)">
<g clip-path="url(#clip1_1_427)">
<path d="M23.9999 7.99993L17.5999 14.3999L20.7999 17.6L27.2 11.1999C29.84 8.55993 34.16 8.55993 36.8 11.1999C39.44 13.8399 39.44 18.16 36.8 20.8L30.4 27.2L33.6 30.4L40 24C44.416 19.584 44.416 12.4159 40 7.99993C35.584 3.58392 28.416 3.58392 23.9999 7.99993ZM27.2 30.4L20.7999 36.8C18.1599 39.44 13.8399 39.44 11.1999 36.8C8.5599 34.16 8.5599 29.84 11.1999 27.2L17.5999 20.8L14.3999 17.6L7.9999 24C3.58389 28.416 3.58389 35.584 7.9999 40C12.4159 44.416 19.5839 44.416 23.9999 40L30.4 33.6L27.2 30.4ZM15.9999 28.8L28.8 16L32 19.2L19.1999 32L15.9999 28.8Z" fill="white"/>
</g>
</g>
<defs>
<clipPath id="clip0_1_427">
<rect width="48" height="48" fill="white"/>
</clipPath>
<clipPath id="clip1_1_427">
<rect width="48" height="48" fill="white"/>
</clipPath>
</defs>
</svg>
